# xmcd CD database file
# Copyright (C) 1993-1998 Ti Kan
# 
# Track frame offsets:
#     175
#     17560
#     36295
#     52407
#     70222
#     94045
#     122645
#     137307
#     158505
#     171347
# 
# Disc length: 2521 seconds
# 
# Revision: 1
# Processed by: cddbd v1.4b41PL1 Copyright (c) Steve Scherf et al.
# Submitted via: DiscPlay 4.0.4
# 
DISCID=8009d70a
DTITLE=Drink Small - Round Two
DYEAR=1900
DGENRE=
TTITLE0=D.U.I.
TTITLE1=Steal Away
TTITLE2=Thank You, Pretty Baby
TTITLE3=Don't Let Nobody Else
TTITLE4=Widow Woman
TTITLE5=I'm Tired Now
TTITLE6=Honky Tonk
TTITLE7=They Can't Make Me Hate You
TTITLE8=Bishopville Women
TTITLE9=Can I Come Over Tonight
EXTD=
EXTT0=
EXTT1=
EXTT2=
EXTT3=
EXTT4=
EXTT5=
EXTT6=
EXTT7=
EXTT8=
EXTT9=
PLAYORDER=
